<svg xmlns="http://www.w3.org/2000/svg" xml:space="preserve" id="Layer_1" x="0" y="0" style="enable-background:new 0 0 218 47" version="1.1" viewBox="0 0 218 47"><style>.st2{fill-rule:evenodd;clip-rule:evenodd;fill:#fff}.st4{filter:url(#Adobe_OpacityMaskFilter_00000097478485676467579080000016421624437882045323_)}.st6{filter:url(#Adobe_OpacityMaskFilter_00000052795571192190371040000009331867666326554783_)}.st8{filter:url(#Adobe_OpacityMaskFilter_00000111891110070833308900000000235175241187121326_)}.st10{filter:url(#Adobe_OpacityMaskFilter_00000067213885325496179870000017510878267051703184_)}.st12{filter:url(#Adobe_OpacityMaskFilter_00000065771843453351495460000013815894912393899424_)}.st14{filter:url(#Adobe_OpacityMaskFilter_00000034786450215049411330000016133357421954951599_)}.st16{filter:url(#Adobe_OpacityMaskFilter_00000150801357870715089180000004570581517284790676_)}.st18{filter:url(#Adobe_OpacityMaskFilter_00000146497384523668643970000016625614706127094915_)}</style><g id="Page-1"><g id="Landing-Page" transform="translate(-53 -48)"><g id="Group-7" transform="translate(53.943 48.712)"><g id="Group-13"><path id="Fill-1" d="M81.9 28.4c0-2.6-2-3.6-4.5-3.6h-5v7.3h5c2.5 0 4.5-1.1 4.5-3.7m-5.5-8.1c2.6 0 4.1-1 4.1-3.4s-1.8-3.4-4.1-3.4h-4v6.7h4zM67.6 9.1h8.9c4.5 0 8.7 2.1 8.7 7.8 0 3.3-2.5 4.9-2.9 5 .4.1 4.3 1.5 4.3 6.4 0 4.8-4 8.1-9.2 8.1h-9.9V9.1z" style="fill-rule:evenodd;clip-rule:evenodd;fill:#00005e"/><defs><filter id="Adobe_OpacityMaskFilter" width="6.2" height="27.6" x="90.2" y="8.9" filterUnits="userSpaceOnUse"><feColorMatrix values="1 0 0 0 0 0 1 0 0 0 0 0 1 0 0 0 0 0 1 0"/></filter></defs><mask id="mask-2_00000075134286456824923840000005644851315671965626_" width="6.2" height="27.6" x="90.2" y="8.9" maskUnits="userSpaceOnUse"><g style="filter:url(#Adobe_OpacityMaskFilter)"><path id="path-1_00000022546487715438628560000006589753362750061458_" d="M0 46h216.3V0H0z" class="st2"/></g></mask><path id="Fill-3" d="M90.9 36.5h4.7V18h-4.7zm2.4-27.6c1.7 0 3.1 1.4 3.1 3.1s-1.4 3.1-3.1 3.1-3.1-1.4-3.1-3.1 1.4-3.1 3.1-3.1" style="fill-rule:evenodd;clip-rule:evenodd;fill:#00005e;mask:url(#mask-2_00000075134286456824923840000005644851315671965626_)"/><defs><filter id="Adobe_OpacityMaskFilter_00000073718997273057757020000014339247830272939702_" width="14.4" height="24.5" x="99.6" y="12.4" filterUnits="userSpaceOnUse"><feColorMatrix values="1 0 0 0 0 0 1 0 0 0 0 0 1 0 0 0 0 0 1 0"/></filter></defs><mask id="mask-2_00000069370807157056312030000006377104880994045879_" width="14.4" height="24.5" x="99.6" y="12.4" maskUnits="userSpaceOnUse"><g style="filter:url(#Adobe_OpacityMaskFilter_00000073718997273057757020000014339247830272939702_)"><path id="path-1_00000098920674161240189070000012459004885245176448_" d="M0 46h216.3V0H0z" class="st2"/></g></mask><path id="Fill-5" d="M99.6 18h3.6v-5.5h4.7V18h5.6v4.2H108v7.5c0 2.3 1.2 2.9 2.4 2.9 1.1 0 2-.7 2-.7l1.7 3.8s-1.8 1.2-4.5 1.2c-3.6 0-6.3-2.6-6.3-6.6v-8.2h-3.6V18z" style="fill-rule:evenodd;clip-rule:evenodd;fill:#00005e;mask:url(#mask-2_00000069370807157056312030000006377104880994045879_)"/><defs><filter id="Adobe_OpacityMaskFilter_00000034789090971746366460000006008060991899358081_" width="19" height="28.5" x="116.1" y="17.5" filterUnits="userSpaceOnUse"><feColorMatrix values="1 0 0 0 0 0 1 0 0 0 0 0 1 0 0 0 0 0 1 0"/></filter></defs><mask id="mask-2_00000093158251987838073170000001287490692195705753_" width="19" height="28.5" x="116.1" y="17.5" maskUnits="userSpaceOnUse"><g style="filter:url(#Adobe_OpacityMaskFilter_00000034789090971746366460000006008060991899358081_)"><path id="path-1_00000106863915759416646480000005827886216759857839_" d="M0 46h216.3V0H0z" class="st2"/></g></mask><path id="Fill-6" d="M130.4 24.5s-1.3-2.6-4.4-2.6c-3.2 0-5.1 2.3-5.1 5.4 0 3 1.9 5.4 5.1 5.4 3 0 4.4-2.6 4.4-2.6zM125.2 37c-4.8 0-9-4-9-9.7s4.2-9.8 9-9.8c3.9 0 5.6 2.9 5.6 2.9V18h4.3v18.7c0 6.5-4.8 9.3-10 9.3-5.3 0-8.8-3.5-8.8-3.5l2.7-3.6s2.6 2.7 6.1 2.7c3.6 0 5.3-2 5.3-4.8v-2.2c-.6.8-2.3 2.4-5.2 2.4" style="fill-rule:evenodd;clip-rule:evenodd;fill:#00005e;mask:url(#mask-2_00000093158251987838073170000001287490692195705753_)"/><defs><filter id="Adobe_OpacityMaskFilter_00000167384724796429547730000015435401619828047031_" width="18.7" height="19.5" x="138.6" y="17.5" filterUnits="userSpaceOnUse"><feColorMatrix values="1 0 0 0 0 0 1 0 0 0 0 0 1 0 0 0 0 0 1 0"/></filter></defs><mask id="mask-2_00000101075469724145897790000005784411016654499725_" width="18.7" height="19.5" x="138.6" y="17.5" maskUnits="userSpaceOnUse"><g style="filter:url(#Adobe_OpacityMaskFilter_00000167384724796429547730000015435401619828047031_)"><path id="path-1_00000051353467771029802920000006021345338366574489_" d="M0 46h216.3V0H0z" class="st2"/></g></mask><path id="Fill-7" d="M152.6 25.5c-.1-1.6-1.6-3.8-4.7-3.8-3 0-4.4 2.1-4.5 3.8zm4.7 1.7V29h-13.9c.4 1.6 2.3 3.8 5.2 3.8 3.2 0 5.1-1.9 5.1-1.9l2.3 3.5s-2.9 2.7-7.4 2.7c-5.6 0-10-4.3-10-9.7s4-9.8 9.3-9.8c5.1-.1 9.4 3.8 9.4 9.6" style="fill-rule:evenodd;clip-rule:evenodd;fill:#00005e;mask:url(#mask-2_00000101075469724145897790000005784411016654499725_)"/><defs><filter id="Adobe_OpacityMaskFilter_00000120551262374908933200000003850628802660313989_" width="16.5" height="19.5" x="159.6" y="17.5" filterUnits="userSpaceOnUse"><feColorMatrix values="1 0 0 0 0 0 1 0 0 0 0 0 1 0 0 0 0 0 1 0"/></filter></defs><mask id="mask-2_00000142859928467016497140000012130009396529926795_" width="16.5" height="19.5" x="159.6" y="17.5" maskUnits="userSpaceOnUse"><g style="filter:url(#Adobe_OpacityMaskFilter_00000120551262374908933200000003850628802660313989_)"><path id="path-1_00000139292142104372271890000010793862654091459460_" d="M0 46h216.3V0H0z" class="st2"/></g></mask><path id="Fill-8" d="M162.2 30.2s2.5 2.7 5.6 2.7c1.9 0 3.5-.5 3.5-1.7s-.9-1.4-3.7-2c-3.7-.8-6.9-2.3-6.9-5.9 0-2.9 2.9-5.8 8-5.8 4.2 0 7 2.3 7 2.3l-2.4 3.4s-2.1-1.6-4.6-1.6c-1.8 0-3.4.6-3.4 1.8 0 1.1 1.3 1.4 4.4 2.1 3.7.8 6.3 2 6.3 5.8 0 3.2-3.4 5.7-8.1 5.7-5.4 0-8.4-3.4-8.4-3.4z" style="fill-rule:evenodd;clip-rule:evenodd;fill:#00005e;mask:url(#mask-2_00000142859928467016497140000012130009396529926795_)"/><defs><filter id="Adobe_OpacityMaskFilter_00000129170940693655870960000004107411476659747730_" width="18.7" height="19.5" x="178.4" y="17.5" filterUnits="userSpaceOnUse"><feColorMatrix values="1 0 0 0 0 0 1 0 0 0 0 0 1 0 0 0 0 0 1 0"/></filter></defs><mask id="mask-2_00000096027543887162321600000007956635627974022545_" width="18.7" height="19.5" x="178.4" y="17.5" maskUnits="userSpaceOnUse"><g style="filter:url(#Adobe_OpacityMaskFilter_00000129170940693655870960000004107411476659747730_)"><path id="path-1_00000103947344571054550990000010547034368968563901_" d="M0 46h216.3V0H0z" class="st2"/></g></mask><path id="Fill-9" d="M192.4 25.5c-.1-1.6-1.6-3.8-4.7-3.8-3 0-4.4 2.1-4.5 3.8zm4.7 1.7V29h-13.9c.4 1.6 2.3 3.8 5.2 3.8 3.2 0 5.1-1.9 5.1-1.9l2.3 3.5s-2.9 2.7-7.4 2.7c-5.6 0-10-4.3-10-9.7s4-9.8 9.3-9.8c5.1-.1 9.4 3.8 9.4 9.6" style="fill-rule:evenodd;clip-rule:evenodd;fill:#00005e;mask:url(#mask-2_00000096027543887162321600000007956635627974022545_)"/><defs><filter id="Adobe_OpacityMaskFilter_00000108276439986100800940000014107739066248234171_" width="4.7" height="29.6" x="201.1" y="6.9" filterUnits="userSpaceOnUse"><feColorMatrix values="1 0 0 0 0 0 1 0 0 0 0 0 1 0 0 0 0 0 1 0"/></filter></defs><mask id="mask-2_00000037655295262121160240000013918664236517986198_" width="4.7" height="29.6" x="201.1" y="6.9" maskUnits="userSpaceOnUse"><g style="filter:url(#Adobe_OpacityMaskFilter_00000108276439986100800940000014107739066248234171_)"><path id="path-1_00000125564137480977045910000015486737924042688171_" d="M0 46h216.3V0H0z" class="st2"/></g></mask><path id="Fill-10" d="M201.1 36.5h4.7V6.9h-4.7z" style="fill-rule:evenodd;clip-rule:evenodd;fill:#00005e;mask:url(#mask-2_00000037655295262121160240000013918664236517986198_)"/><defs><filter id="Adobe_OpacityMaskFilter_00000009563993633805260810000017112997544113183128_" width="4.7" height="29.6" x="211.6" y="6.9" filterUnits="userSpaceOnUse"><feColorMatrix values="1 0 0 0 0 0 1 0 0 0 0 0 1 0 0 0 0 0 1 0"/></filter></defs><mask id="mask-2_00000010306855309496098330000009708705384067463863_" width="4.7" height="29.6" x="211.6" y="6.9" maskUnits="userSpaceOnUse"><g style="filter:url(#Adobe_OpacityMaskFilter_00000009563993633805260810000017112997544113183128_)"><path id="path-1_00000026148571763540510030000007445739290964401323_" d="M0 46h216.3V0H0z" class="st2"/></g></mask><path id="Fill-11" d="M211.6 36.5h4.7V6.9h-4.7z" style="fill-rule:evenodd;clip-rule:evenodd;fill:#00005e;mask:url(#mask-2_00000010306855309496098330000009708705384067463863_)"/><defs><filter id="Adobe_OpacityMaskFilter_00000111898309315214225470000010786181252194321294_" width="43.8" height="43.6" x="0" y="0" filterUnits="userSpaceOnUse"><feColorMatrix values="1 0 0 0 0 0 1 0 0 0 0 0 1 0 0 0 0 0 1 0"/></filter></defs><mask id="mask-2_00000126301601214812229370000006957650755313058463_" width="43.8" height="43.6" x="0" y="0" maskUnits="userSpaceOnUse"><g style="filter:url(#Adobe_OpacityMaskFilter_00000111898309315214225470000010786181252194321294_)"><path id="path-1_00000006668686314866301700000000507762916888361345_" d="M0 46h216.3V0H0z" class="st2"/></g></mask><path id="Fill-12" d="M39.7 39.6H4V4h9.2v26.4h26.5zM26.6 4v13.2h13.1v9.1H17.3V4zm4 9.2h9V4h-9zM43.7 0H0v43.6h43.8V30.4z" style="fill-rule:evenodd;clip-rule:evenodd;fill:#6e38e5;mask:url(#mask-2_00000126301601214812229370000006957650755313058463_)"/></g></g></g></g></svg>